<?xml version="1.0" encoding="UTF-8"?>
<svg xmlns="http://www.w3.org/2000/svg" xmlns:xlink="http://www.w3.org/1999/xlink" width="46.959999pt" height="32.639999pt" viewBox="0 0 46.959999 32.639999" version="1.1">
<g id="surface1">
<path style=" stroke:none;fill-rule:nonzero;fill:rgb(54%,54%,54%);fill-opacity:1;" d="M 32.078125 3.441406 C 30.640625 2.71875 28.960938 2.238281 27.199219 2.238281 L 17.761719 2.238281 L 17.761719 25.199219 L 27.199219 25.199219 C 28.960938 25.199219 30.640625 24.71875 32.078125 24 C 35.839844 22.078125 38.398438 18.238281 38.398438 13.761719 C 38.398438 9.199219 35.839844 5.28125 32.078125 3.441406 Z M 27.199219 21.761719 L 21.121094 21.761719 L 21.121094 5.601562 L 27.199219 5.601562 C 31.601562 5.679688 35.039062 9.28125 35.039062 13.679688 C 35.039062 18.078125 31.519531 21.601562 27.199219 21.761719 Z M 27.199219 21.761719 "/>
<path style=" stroke:none;fill-rule:nonzero;fill:rgb(35%,35%,35%);fill-opacity:1;" d="M 39.441406 5.601562 L 46.480469 5.601562 L 46.480469 2.160156 L 36.398438 2.160156 C 37.601562 3.121094 38.640625 4.320312 39.441406 5.601562 Z M 12.558594 2.160156 L 9.199219 2.160156 L 9.199219 25.121094 L 12.558594 25.121094 Z M 46.480469 21.761719 L 39.441406 21.761719 C 38.640625 23.039062 37.601562 24.160156 36.398438 25.121094 L 46.398438 25.121094 L 46.398438 21.761719 Z M 3.921875 2.160156 L 0.558594 2.160156 L 0.558594 25.121094 L 3.921875 25.121094 Z M 46.480469 15.359375 L 46.480469 12 L 41.761719 12 C 41.839844 12.558594 41.839844 13.121094 41.839844 13.679688 C 41.839844 14.238281 41.839844 14.800781 41.761719 15.359375 Z M 12.398438 27.921875 C 12.160156 27.839844 11.921875 27.761719 11.679688 27.761719 L 10.398438 27.761719 L 10.398438 30.398438 L 11.601562 30.398438 C 11.839844 30.398438 12.160156 30.320312 12.320312 30.238281 C 12.558594 30.160156 12.71875 30 12.800781 29.761719 C 12.878906 29.601562 12.960938 29.359375 12.960938 29.039062 C 12.960938 28.800781 12.878906 28.558594 12.800781 28.320312 C 12.71875 28.160156 12.558594 28.078125 12.398438 27.921875 Z M 12.160156 29.601562 C 12 29.761719 11.839844 29.761719 11.601562 29.761719 L 11.121094 29.761719 L 11.121094 28.320312 L 11.601562 28.320312 C 11.839844 28.320312 12 28.398438 12.160156 28.480469 C 12.320312 28.640625 12.398438 28.800781 12.398438 29.039062 C 12.320312 29.28125 12.320312 29.441406 12.160156 29.601562 Z M 13.761719 30.398438 L 14.398438 30.398438 L 14.398438 27.839844 L 13.679688 27.839844 L 13.679688 30.398438 Z M 4.800781 28.71875 L 3.761719 28.71875 L 3.761719 27.761719 L 3.121094 27.761719 L 3.121094 30.398438 L 3.839844 30.398438 L 3.839844 29.359375 L 4.800781 29.359375 L 4.800781 30.398438 L 5.519531 30.398438 L 5.519531 27.839844 L 4.800781 27.839844 Z M 7.039062 29.359375 L 8.160156 29.359375 L 8.160156 28.800781 L 7.039062 28.800781 L 7.039062 28.398438 L 8.320312 28.398438 L 8.320312 27.839844 L 6.320312 27.839844 L 6.320312 30.398438 L 8.320312 30.398438 L 8.320312 29.839844 L 7.039062 29.839844 Z M 0.238281 28.320312 L 1.039062 28.320312 L 1.039062 30.398438 L 1.761719 30.398438 L 1.761719 28.398438 L 2.558594 28.398438 L 2.558594 27.839844 L 0.238281 27.839844 Z M 32.71875 28.398438 C 32.800781 28.320312 32.960938 28.320312 33.121094 28.320312 C 33.359375 28.320312 33.519531 28.398438 33.679688 28.558594 L 33.679688 28.640625 L 34.160156 28.238281 C 34 28.078125 33.921875 28 33.679688 27.921875 C 33.519531 27.839844 33.28125 27.839844 33.039062 27.839844 C 32.800781 27.839844 32.558594 27.921875 32.320312 28 C 32.078125 28.078125 31.921875 28.238281 31.839844 28.480469 C 31.679688 28.71875 31.679688 28.878906 31.679688 29.199219 C 31.679688 29.441406 31.761719 29.679688 31.839844 29.921875 C 32 30.160156 32.160156 30.320312 32.320312 30.398438 C 32.558594 30.480469 32.800781 30.558594 33.039062 30.558594 C 33.28125 30.558594 33.441406 30.558594 33.679688 30.480469 C 33.839844 30.398438 34 30.320312 34.160156 30.160156 L 33.679688 29.761719 L 33.679688 29.839844 C 33.519531 30 33.359375 30.078125 33.121094 30.078125 C 32.960938 30.078125 32.878906 30.078125 32.71875 30 L 32.480469 29.761719 C 32.398438 29.679688 32.398438 29.519531 32.398438 29.359375 C 32.398438 29.199219 32.398438 29.121094 32.480469 28.960938 C 32.558594 28.558594 32.640625 28.480469 32.71875 28.398438 Z M 30.71875 28.960938 C 30.558594 28.878906 30.398438 28.878906 30.238281 28.800781 C 30.078125 28.800781 29.921875 28.71875 29.839844 28.71875 C 29.761719 28.71875 29.761719 28.640625 29.761719 28.558594 C 29.761719 28.480469 29.761719 28.480469 29.839844 28.398438 C 29.921875 28.320312 30 28.320312 30.160156 28.320312 C 30.398438 28.320312 30.640625 28.398438 30.800781 28.480469 L 30.878906 28.480469 L 31.121094 27.921875 C 31.039062 27.839844 30.878906 27.761719 30.71875 27.761719 C 30.558594 27.761719 30.398438 27.679688 30.238281 27.679688 C 30 27.679688 29.839844 27.679688 29.679688 27.761719 C 29.519531 27.839844 29.359375 27.921875 29.28125 28.078125 C 29.199219 28.238281 29.121094 28.320312 29.121094 28.480469 C 29.121094 28.640625 29.199219 28.800781 29.28125 28.878906 C 29.359375 28.960938 29.519531 29.039062 29.601562 29.121094 C 29.761719 29.199219 29.921875 29.199219 30.078125 29.28125 C 30.238281 29.28125 30.320312 29.359375 30.398438 29.359375 C 30.480469 29.359375 30.480469 29.441406 30.558594 29.441406 L 30.640625 29.519531 C 30.640625 29.601562 30.640625 29.601562 30.558594 29.679688 C 30.480469 29.761719 30.398438 29.761719 30.238281 29.761719 C 30.078125 29.761719 29.921875 29.761719 29.839844 29.679688 C 29.679688 29.601562 29.601562 29.601562 29.441406 29.519531 L 29.359375 29.519531 L 29.121094 30.078125 C 29.199219 30.160156 29.359375 30.238281 29.601562 30.320312 C 29.761719 30.398438 30 30.398438 30.160156 30.398438 C 30.398438 30.398438 30.558594 30.398438 30.800781 30.320312 C 30.960938 30.238281 31.121094 30.160156 31.199219 30 L 31.199219 29.601562 C 31.199219 29.441406 31.121094 29.28125 31.039062 29.199219 C 30.960938 29.039062 30.878906 28.960938 30.71875 28.960938 Z M 40 27.921875 C 39.761719 27.839844 39.519531 27.761719 39.28125 27.761719 C 39.039062 27.761719 38.800781 27.839844 38.558594 27.921875 C 38.320312 28 38.160156 28.160156 38.078125 28.398438 C 37.921875 28.640625 37.921875 28.800781 37.921875 29.121094 C 37.921875 29.441406 38 29.601562 38.078125 29.839844 C 38.238281 30.078125 38.398438 30.238281 38.558594 30.320312 C 38.800781 30.398438 39.039062 30.480469 39.28125 30.480469 C 39.519531 30.480469 39.761719 30.398438 40 30.320312 C 40.238281 30.238281 40.398438 30.078125 40.480469 29.839844 C 40.640625 29.601562 40.640625 29.441406 40.640625 29.121094 C 40.640625 28.878906 40.558594 28.640625 40.480469 28.398438 C 40.398438 28.160156 40.238281 28 40 27.921875 Z M 39.921875 29.441406 L 39.679688 29.679688 C 39.601562 29.761719 39.441406 29.761719 39.28125 29.761719 C 39.121094 29.761719 39.039062 29.761719 38.878906 29.679688 L 38.640625 29.441406 C 38.558594 29.359375 38.558594 29.199219 38.558594 29.039062 C 38.558594 28.878906 38.558594 28.800781 38.640625 28.640625 L 38.878906 28.398438 C 38.960938 28.320312 39.121094 28.320312 39.28125 28.320312 C 39.441406 28.320312 39.519531 28.320312 39.679688 28.398438 L 39.921875 28.640625 C 40 28.800781 40 28.960938 40 29.039062 C 40 29.121094 40 29.359375 39.921875 29.441406 Z M 16.160156 28.398438 C 16.238281 28.320312 16.398438 28.320312 16.558594 28.320312 C 16.800781 28.320312 16.960938 28.398438 17.199219 28.558594 L 17.679688 28.160156 C 17.519531 28 17.359375 27.921875 17.199219 27.839844 C 17.039062 27.761719 16.800781 27.761719 16.558594 27.761719 C 16.320312 27.761719 16.078125 27.839844 15.839844 27.921875 C 15.601562 28 15.441406 28.160156 15.359375 28.398438 C 15.199219 28.640625 15.199219 28.800781 15.199219 29.121094 C 15.199219 29.359375 15.28125 29.601562 15.359375 29.839844 C 15.519531 30.078125 15.679688 30.238281 15.839844 30.320312 C 16.078125 30.398438 16.320312 30.480469 16.558594 30.480469 C 16.71875 30.480469 16.960938 30.480469 17.121094 30.398438 L 17.601562 30.160156 L 17.601562 29.039062 L 16.960938 29.039062 L 16.960938 29.761719 C 16.878906 29.839844 16.71875 29.839844 16.558594 29.839844 C 16.398438 29.839844 16.320312 29.839844 16.160156 29.761719 C 16.078125 29.679688 15.921875 29.601562 15.921875 29.519531 C 15.839844 29.441406 15.839844 29.28125 15.839844 29.121094 C 15.839844 28.960938 15.839844 28.878906 15.921875 28.71875 C 15.921875 28.558594 16 28.480469 16.160156 28.398438 Z M 43.359375 27.921875 C 43.121094 27.839844 42.878906 27.761719 42.640625 27.761719 C 42.398438 27.761719 42.160156 27.839844 41.921875 27.921875 C 41.679688 28 41.519531 28.160156 41.441406 28.398438 C 41.28125 28.640625 41.28125 28.800781 41.28125 29.121094 C 41.28125 29.441406 41.359375 29.601562 41.441406 29.839844 C 41.601562 30.078125 41.761719 30.238281 41.921875 30.320312 C 42.160156 30.398438 42.398438 30.480469 42.640625 30.480469 C 42.878906 30.480469 43.121094 30.398438 43.359375 30.320312 C 43.601562 30.238281 43.761719 30.078125 43.839844 29.839844 C 44 29.601562 44 29.441406 44 29.121094 C 44 28.800781 43.921875 28.640625 43.839844 28.398438 C 43.761719 28.160156 43.601562 28 43.359375 27.921875 Z M 43.28125 29.441406 L 43.039062 29.679688 C 42.960938 29.761719 42.800781 29.761719 42.640625 29.761719 C 42.480469 29.761719 42.398438 29.761719 42.238281 29.679688 L 42 29.441406 C 41.921875 29.359375 41.921875 29.199219 41.921875 29.039062 C 41.921875 28.878906 41.921875 28.800781 42 28.640625 L 42.238281 28.398438 C 42.320312 28.320312 42.480469 28.320312 42.640625 28.320312 C 42.800781 28.320312 42.878906 28.320312 43.039062 28.398438 L 43.28125 28.640625 C 43.359375 28.71875 43.359375 28.878906 43.359375 29.039062 C 43.359375 29.199219 43.359375 29.359375 43.28125 29.441406 Z M 45.441406 29.761719 L 45.441406 27.761719 L 44.71875 27.761719 L 44.71875 30.398438 L 46.640625 30.398438 L 46.640625 29.839844 L 45.441406 29.839844 Z M 36.480469 28.71875 L 35.441406 28.71875 L 35.441406 27.761719 L 34.71875 27.761719 L 34.71875 30.398438 L 35.441406 30.398438 L 35.441406 29.359375 L 36.480469 29.359375 L 36.480469 30.398438 L 37.199219 30.398438 L 37.199219 27.839844 L 36.480469 27.839844 Z M 19.601562 28.320312 L 20.398438 28.320312 L 20.398438 30.398438 L 21.121094 30.398438 L 21.121094 28.398438 L 21.921875 28.398438 L 21.921875 27.839844 L 19.679688 27.839844 L 19.679688 28.320312 Z M 26.078125 27.761719 L 25.359375 27.761719 L 25.359375 30.398438 L 27.28125 30.398438 L 27.28125 29.839844 L 26 29.839844 L 26 27.761719 Z M 18.320312 30.398438 L 19.039062 30.398438 L 19.039062 27.839844 L 18.320312 27.839844 Z M 23.121094 27.761719 L 21.921875 30.398438 L 22.640625 30.398438 L 22.878906 29.839844 L 24 29.839844 L 24.238281 30.398438 L 24.960938 30.398438 L 23.761719 27.839844 L 23.121094 27.839844 Z M 23.121094 29.28125 L 23.441406 28.558594 L 23.761719 29.28125 Z M 23.121094 29.28125 "/>
</g>
</svg>
